<svg width="14" height="28" viewBox="0 0 14 28" fill="none" xmlns="http://www.w3.org/2000/svg">
<path d="M8.00001 18.1839V10H6.00001V18.1839C5.33279 18.4198 4.77045 18.884 4.41237 19.4944C4.0543 20.1048 3.92354 20.8221 4.04321 21.5196C4.16288 22.2171 4.52528 22.8499 5.06635 23.306C5.60741 23.7621 6.29232 24.0123 7.00001 24.0123C7.70769 24.0123 8.3926 23.7621 8.93367 23.306C9.47473 22.8499 9.83713 22.2171 9.9568 21.5196C10.0765 20.8221 9.94571 20.1048 9.58764 19.4944C9.22956 18.884 8.66722 18.4198 8.00001 18.1839Z" fill="white"/>
<path d="M7.00001 28C5.62216 28.0013 4.27463 27.5956 3.12656 26.8338C1.97849 26.072 1.08106 24.988 0.546917 23.7179C0.0127782 22.4478 -0.134261 21.0482 0.124258 19.6948C0.382777 18.3414 1.03533 17.0946 2.00001 16.1108V5C2.00001 3.67392 2.52679 2.40215 3.46447 1.46447C4.40216 0.526784 5.67392 0 7.00001 0C8.32609 0 9.59786 0.526784 10.5355 1.46447C11.4732 2.40215 12 3.67392 12 5V16.1108C12.9647 17.0946 13.6172 18.3414 13.8758 19.6948C14.1343 21.0482 13.9872 22.4478 13.4531 23.7179C12.919 24.988 12.0215 26.072 10.8735 26.8338C9.72539 27.5956 8.37785 28.0013 7.00001 28ZM7.00001 2C6.20463 2.00087 5.44207 2.31722 4.87965 2.87964C4.31723 3.44206 4.00088 4.20462 4.00001 5V16.9834L3.66801 17.2817C2.91289 17.9566 2.38052 18.8449 2.14139 19.8291C1.90225 20.8132 1.96761 21.8468 2.32883 22.7929C2.69004 23.7391 3.33007 24.5533 4.1642 25.1277C4.99833 25.7021 5.98723 26.0097 7.00001 26.0097C8.01278 26.0097 9.00169 25.7021 9.83582 25.1277C10.6699 24.5533 11.31 23.7391 11.6712 22.7929C12.0324 21.8468 12.0978 20.8132 11.8586 19.8291C11.6195 18.8449 11.0871 17.9566 10.332 17.2817L10 16.9834V5C9.99913 4.20462 9.68278 3.44206 9.12036 2.87964C8.55794 2.31722 7.79539 2.00087 7.00001 2Z" fill="white"/>
</svg>
