<svg width="25" height="19" viewBox="0 0 25 19" fill="none" xmlns="http://www.w3.org/2000/svg">
<path d="M1.53125 6.96875C1.30747 6.96875 1.09286 6.87986 0.934629 6.72162C0.776395 6.56339 0.6875 6.34878 0.6875 6.125C0.6875 5.90122 0.776395 5.68661 0.934629 5.52838C1.09286 5.37015 1.30747 5.28125 1.53125 5.28125H11.6562C11.9646 5.28112 12.2669 5.19653 12.5305 5.03667C12.7942 4.87681 13.009 4.64778 13.1516 4.37446C13.2942 4.10113 13.3592 3.79395 13.3396 3.48628C13.32 3.1786 13.2164 2.88218 13.0402 2.62921C12.864 2.37623 12.6218 2.17636 12.34 2.05131C12.0582 1.92625 11.7476 1.88079 11.4417 1.91985C11.1359 1.95891 10.8466 2.08101 10.6053 2.27288C10.364 2.46475 10.1799 2.71907 10.0729 3.00821C10.0344 3.11213 9.97588 3.20746 9.90059 3.28875C9.82529 3.37004 9.73472 3.43571 9.63405 3.482C9.53338 3.52829 9.42458 3.5543 9.31385 3.55854C9.20313 3.56278 9.09265 3.54517 8.98874 3.50672C8.88482 3.46826 8.78949 3.40972 8.7082 3.33442C8.62691 3.25913 8.56124 3.16856 8.51495 3.06789C8.46866 2.96722 8.44265 2.85841 8.43841 2.74769C8.43417 2.63697 8.45178 2.52649 8.49023 2.42257C8.70417 1.84415 9.07249 1.33539 9.55521 0.951553C10.0379 0.567715 10.6166 0.323468 11.2283 0.245337C11.8401 0.167206 12.4616 0.258177 13.0253 0.508371C13.5889 0.758565 14.0733 1.15842 14.4258 1.66451C14.7782 2.1706 14.9853 2.76358 15.0244 3.37906C15.0636 3.99453 14.9334 4.60898 14.648 5.15567C14.3625 5.70236 13.9327 6.16039 13.4053 6.48003C12.8779 6.79967 12.273 6.96869 11.6562 6.96875H1.53125ZM15.0312 12.0313H3.21875C2.99497 12.0313 2.78036 12.1201 2.62213 12.2784C2.46389 12.4366 2.375 12.6512 2.375 12.875C2.375 13.0988 2.46389 13.3134 2.62213 13.4716C2.78036 13.6299 2.99497 13.7188 3.21875 13.7188H15.0312C15.3396 13.7189 15.6419 13.8035 15.9055 13.9633C16.1692 14.1232 16.384 14.3522 16.5266 14.6255C16.6692 14.8989 16.7342 15.206 16.7146 15.5137C16.695 15.8214 16.5914 16.1178 16.4152 16.3708C16.239 16.6238 15.9968 16.8236 15.715 16.9487C15.4332 17.0737 15.1226 17.1192 14.8167 17.0802C14.5109 17.0411 14.2216 16.919 13.9803 16.7271C13.739 16.5353 13.5549 16.2809 13.4479 15.9918C13.4094 15.8879 13.3509 15.7925 13.2756 15.7113C13.2003 15.63 13.1097 15.5643 13.0091 15.518C12.9084 15.4717 12.7996 15.4457 12.6889 15.4415C12.5781 15.4372 12.4677 15.4548 12.3637 15.4933C12.2598 15.5317 12.1645 15.5903 12.0832 15.6656C12.0019 15.7409 11.9362 15.8314 11.8899 15.9321C11.8437 16.0328 11.8177 16.1416 11.8134 16.2523C11.8092 16.363 11.8268 16.4735 11.8652 16.5774C12.0792 17.1559 12.4475 17.6646 12.9302 18.0484C13.4129 18.4323 13.9916 18.6765 14.6033 18.7547C15.2151 18.8328 15.8366 18.7418 16.4003 18.4916C16.9639 18.2414 17.4483 17.8416 17.8008 17.3355C18.1532 16.8294 18.3603 16.2364 18.3994 15.6209C18.4386 15.0055 18.3084 14.391 18.023 13.8443C17.7375 13.2976 17.3077 12.8396 16.7803 12.52C16.2529 12.2003 15.648 12.0313 15.0312 12.0313ZM20.9375 3.59375C20.2483 3.59556 19.576 3.80748 19.0103 4.20124C18.4447 4.59499 18.0125 5.15187 17.7715 5.79757C17.733 5.90149 17.7154 6.01197 17.7197 6.12269C17.7239 6.23341 17.7499 6.34222 17.7962 6.44289C17.8425 6.54356 17.9082 6.63413 17.9894 6.70942C18.0707 6.78472 18.1661 6.84326 18.27 6.88172C18.3739 6.92017 18.4844 6.93778 18.5951 6.93354C18.7058 6.9293 18.8146 6.90329 18.9153 6.857C19.016 6.81071 19.1065 6.74504 19.1818 6.66375C19.2571 6.58246 19.3157 6.48713 19.3541 6.38321C19.4611 6.09396 19.6452 5.83952 19.8866 5.64755C20.1279 5.45558 20.4173 5.3334 20.7232 5.29429C21.0291 5.25518 21.3398 5.30063 21.6217 5.42571C21.9036 5.55078 22.1458 5.7507 22.3221 6.00375C22.4984 6.25679 22.602 6.5533 22.6216 6.86107C22.6412 7.16884 22.5761 7.4761 22.4334 7.74948C22.2907 8.02287 22.0758 8.25193 21.8121 8.41179C21.5484 8.57165 21.2459 8.6562 20.9375 8.65625H2.375C2.15122 8.65625 1.93661 8.74515 1.77838 8.90338C1.62014 9.06161 1.53125 9.27622 1.53125 9.5C1.53125 9.72378 1.62014 9.93839 1.77838 10.0966C1.93661 10.2549 2.15122 10.3438 2.375 10.3438H20.9375C21.8326 10.3438 22.691 9.98817 23.324 9.35524C23.9569 8.7223 24.3125 7.86386 24.3125 6.96875C24.3125 6.07364 23.9569 5.2152 23.324 4.58227C22.691 3.94933 21.8326 3.59375 20.9375 3.59375Z" fill="white"/>
</svg>
